#!OML:ASF I:\Actors\actors\Patient Classification 2\Patient 1\Session 1\actor1.ASF
:FULLY-SPECIFIED
:DEGREES
432
root -0.708856 18.7432 5.36797 1.28836 7.39488 -4.70532
lowerback 10.0833 3.41014 -1.06762
upperback 0.873497 4.37554 -0.709395
thorax -4.75622 2.1747 -0.752861
lowerneck -9.14215 -6.1619 -8.62
upperneck 26.7579 -8.6346 6.34339
head 10.7557 -4.09408 2.69136
rclavicle 6.33129e-014 -7.15625e-015
rhumerus -13.5102 14.9985 -65.7499
rradius 79.3128
rwrist 3.71772
rhand 22.1346 -51.1638
rfingers 7.12502
rthumb 46.5182 285.961
lclavicle 6.33129e-014 -7.15625e-015
lhumerus -34.1672 -18.2748 97.224
lradius 69.0071
lwrist 8.06489
lhand -7.44995 -32.2483
lfingers 7.12502
lthumb 18.438 -3.10217
rfemur 0 0 0
rtibia 0
rfoot 0 0
rtoes 0
lfemur -10.8237 -7.87748 -8.76489
ltibia 25.3201
lfoot -19.1937 9.12918
ltoes -56.7547
433
root -0.711024 18.7442 5.36699 1.3516 7.37578 -4.63643
lowerback 10.1553 3.3902 -1.17645
upperback 0.878658 4.33584 -0.699894
thorax -4.79986 2.15701 -0.681493
lowerneck -8.87883 -6.24906 -8.74361
upperneck 26.0021 -8.73825 6.42624
head 10.4432 -4.15594 2.72901
rclavicle 9.44227e-015 -2.38542e-015
rhumerus -13.9947 15.1386 -66.0312
rradius 80.4443
rwrist 6.97009
rhand 18.5229 -50.6715
rfingers 7.12502
rthumb 43.1567 285.138
lclavicle 9.44227e-015 -2.38542e-015
lhumerus -34.3267 -18.2724 97.1942
lradius 69.1473
lwrist 8.11899
lhand -7.54118 -32.2553
lfingers 7.12502
lthumb 18.3503 -3.10086
rfemur 0 0 0
rtibia 0
rfoot 0 0
rtoes 0
lfemur -10.8661 -7.89285 -8.8299
ltibia 25.2819
lfoot -19.1641 9.1506
ltoes -56.6433
434
root -0.713462 18.745 5.36606 1.42266 7.33779 -4.60737
lowerback 10.2341 3.36907 -1.1979
upperback 0.876372 4.30244 -0.724217
thorax -4.84583 2.14041 -0.695235
lowerneck -8.54019 -6.38621 -8.82574
upperneck 25.0765 -8.91901 6.51496
head 10.0645 -4.25193 2.75366
rclavicle -7.95139e-016 1.19271e-014
rhumerus -14.5594 15.8338 -66.4505
rradius 81.7033
rwrist 10.5316
rhand 14.7882 -50.1997
rfingers 7.12502
rthumb 39.6522 284.47
lclavicle -7.95139e-016 1.19271e-014
lhumerus -34.4744 -18.3287 97.1497
lradius 69.2609
lwrist 8.22365
lhand -7.49129 -32.2637
lfingers 7.12502
lthumb 18.3983 -3.11373
rfemur 0 0 0
rtibia 0
rfoot 0 0
rtoes 0
lfemur -10.9028 -7.91152 -8.84599
ltibia 25.2297
lfoot -19.1483 9.20989
ltoes -56.6337
435
root -0.716415 18.7457 5.36626 1.4937 7.26663 -4.59696
lowerback 10.3304 3.33876 -1.16224
upperback 0.859565 4.26165 -0.772451
thorax -4.91071 2.11869 -0.766106
lowerneck -8.18081 -6.55484 -8.94882
upperneck 24.0558 -9.13897 6.62945
head 9.6618 -4.36915 2.79094
rclavicle 2.54444e-014 -2.38542e-015
rhumerus -15.1179 17.0985 -66.8479
rradius 82.8567
rwrist 15.0558
rhand 11.9379 -49.477
rfingers 7.12502
rthumb 36.962 284.449
lclavicle 2.54444e-014 -2.38542e-015
lhumerus -34.6709 -18.3538 97.076
lradius 69.3925
lwrist 8.42432
lhand -7.20905 -32.2998
lfingers 7.12502
lthumb 18.6698 -3.17576
rfemur 0 0 0
rtibia 0
rfoot 0 0
rtoes 0
lfemur -10.9199 -7.90116 -8.83776
ltibia 25.1757
lfoot -19.1648 9.26009
ltoes -56.6098
436
root -0.718637 18.7463 5.36924 1.55039 7.11259 -4.58213
lowerback 10.3963 3.32145 -1.13022
upperback 0.840173 4.23786 -0.82887
thorax -4.96113 2.10542 -0.84403
lowerneck -7.88717 -6.73108 -9.32781
upperneck 23.0778 -9.37142 6.94814
head 9.31906 -4.49292 2.93919
rclavicle 3.02153e-014 -9.54166e-015
rhumerus -15.6965 19.1501 -67.1686
rradius 83.8258
rwrist 19.7764
rhand 8.56013 -49.0459
rfingers 7.12502
rthumb 33.7594 284.117
lclavicle 3.02153e-014 -9.54166e-015
lhumerus -34.8797 -18.2786 96.9811
lradius 69.5032
lwrist 8.43792
lhand -7.02345 -32.1706
lfingers 7.12502
lthumb 18.8483 -3.06379
rfemur 0 0 0
rtibia 0
rfoot 0 0
rtoes 0
lfemur -10.8869 -7.87966 -8.84922
ltibia 25.1234
lfoot -19.2403 9.40887
ltoes -56.6401
437
root -0.720465 18.7475 5.37438 1.63082 6.90053 -4.551
lowerback 10.443 3.31893 -1.13136
upperback 0.781392 4.22886 -0.903736
thorax -5.04315 2.09985 -0.925278
lowerneck -7.57934 -6.92194 -9.71766
upperneck 22.0566 -9.6267 7.29514
head 8.96981 -4.62647 3.09634
rclavicle -7.2954e-014 4.45278e-014
rhumerus -16.3784 21.8276 -67.5365
rradius 84.5391
rwrist 24.0147
rhand 4.81157 -49.3443
rfingers 7.12502
rthumb 30.1902 283.103
lclavicle -7.2954e-014 4.45278e-014
lhumerus -35.0989 -18.1304 96.8711
lradius 69.5617
lwrist 8.27341
lhand -6.90352 -31.8733
lfingers 7.12502
lthumb 18.9636 -2.77771
rfemur 0 0 0
rtibia 0
rfoot 0 0
rtoes 0
lfemur -10.8593 -7.88217 -8.88434
ltibia 25.0743
lfoot -19.3362 9.66351
ltoes -56.7661
438
root -0.723839 18.7489 5.38041 1.73002 6.70008 -4.49752
lowerback 10.4582 3.31082 -1.19163
upperback 0.701403 4.20453 -1.00197
thorax -5.13249 2.08777 -0.994586
lowerneck -7.15258 -7.10949 -9.79411
upperneck 20.8429 -9.88148 7.4562
head 8.51326 -4.75707 3.14335
rclavicle 3.69739e-014 9.54166e-015
rhumerus -17.1497 24.7639 -68.0875
rradius 84.8901
rwrist 27.4787
rhand 0.659739 -50.0626
rfingers 7.12502
rthumb 26.2221 281.729
lclavicle 3.69739e-014 9.54166e-015
lhumerus -35.3209 -17.9953 96.7351
lradius 69.5635
lwrist 8.18728
lhand -6.78011 -31.6465
lfingers 7.12502
lthumb 19.0823 -2.56258
rfemur 0 0 0
rtibia 0
rfoot 0 0
rtoes 0
lfemur -10.8536 -7.8409 -8.93345
ltibia 25.0281
lfoot -19.3801 9.86226
ltoes -56.8667
439
root -0.727548 18.7498 5.38762 1.77543 6.52062 -4.49491
lowerback 10.4283 3.297 -1.21716
upperback 0.670672 4.17935 -1.07789
thorax -5.14427 2.07514 -1.05492
lowerneck -6.73267 -7.27709 -9.87559
upperneck 19.519 -10.1019 7.64087
head 8.02766 -4.87172 3.20562
rclavicle 1.47101e-014 1.35174e-014
rhumerus -17.8635 27.6464 -68.7658
rradius 84.7859
rwrist 29.8185
rhand -3.88902 -50.8028
rfingers 7.12502
rthumb 21.8605 280.412
lclavicle 1.47101e-014 1.35174e-014
lhumerus -35.5402 -17.8891 96.6037
lradius 69.5767
lwrist 8.16485
lhand -6.86704 -31.5657
lfingers 7.12502
lthumb 18.9987 -2.47353
rfemur 0 0 0
rtibia 0
rfoot 0 0
rtoes 0
lfemur -10.7895 -7.80302 -8.92883
ltibia 24.9799
lfoot -19.4403 9.98443
ltoes -56.7757
